<svg xmlns="http://www.w3.org/2000/svg" width="720" height="420" viewBox="0 0 720 420" role="img" aria-labelledby="title desc">
  <title id="title">Ingredients on a kitchen board</title>
  <desc id="desc">A colorful illustration of vegetables, eggs, tofu, and herbs on a cutting board.</desc>
  <rect width="720" height="420" fill="#f7f5ee"/>
  <ellipse cx="360" cy="344" rx="250" ry="34" fill="#d8d3c4"/>
  <rect x="104" y="86" width="512" height="248" rx="28" fill="#d7b37a"/>
  <rect x="124" y="106" width="472" height="208" rx="18" fill="#e8c88f"/>
  <circle cx="563" cy="128" r="17" fill="#b4864d"/>
  <g fill="none" stroke="#b4864d" stroke-width="6" stroke-linecap="round" opacity=".45">
    <path d="M158 154h210"/>
    <path d="M151 222h330"/>
    <path d="M252 284h250"/>
  </g>
  <g>
    <circle cx="220" cy="184" r="56" fill="#df4e3f"/>
    <path d="M196 143c15-14 37-15 51-1" fill="none" stroke="#2f8f62" stroke-width="8" stroke-linecap="round"/>
    <circle cx="209" cy="174" r="9" fill="#f9a59a" opacity=".65"/>
  </g>
  <g>
    <ellipse cx="332" cy="174" rx="42" ry="34" fill="#fff7e4"/>
    <circle cx="332" cy="174" r="17" fill="#f4b83f"/>
    <ellipse cx="387" cy="202" rx="42" ry="34" fill="#fff7e4"/>
    <circle cx="387" cy="202" r="17" fill="#f4b83f"/>
  </g>
  <g>
    <rect x="438" y="154" width="86" height="72" rx="14" fill="#f3efe3"/>
    <path d="M456 175h48M456 197h34" stroke="#d2c8b2" stroke-width="6" stroke-linecap="round"/>
  </g>
  <g>
    <path d="M181 278c16-49 81-47 96 0-29 20-66 20-96 0z" fill="#3d9a5f"/>
    <path d="M229 236v65" stroke="#2f7648" stroke-width="7" stroke-linecap="round"/>
    <path d="M205 260c16-7 33-7 50 0" stroke="#67bf7e" stroke-width="6" stroke-linecap="round"/>
  </g>
  <g>
    <path d="M318 282c-13-38 31-74 66-48 31 24 17 79-25 82-18 1-34-10-41-34z" fill="#7550a8"/>
    <path d="M374 232c10-11 23-14 37-9" fill="none" stroke="#2f8f62" stroke-width="8" stroke-linecap="round"/>
    <path d="M340 264c10 9 21 14 34 14" fill="none" stroke="#9775c3" stroke-width="6" stroke-linecap="round"/>
  </g>
  <g>
    <rect x="451" y="263" width="86" height="22" rx="11" fill="#f27d36"/>
    <rect x="442" y="240" width="100" height="22" rx="11" fill="#f7a344"/>
    <path d="M536 252c19-14 39-11 53 5" fill="none" stroke="#2f8f62" stroke-width="8" stroke-linecap="round"/>
  </g>
  <g stroke="#2f8f62" stroke-width="7" stroke-linecap="round">
    <path d="M542 197c27-23 53-23 80 0"/>
    <path d="M550 217c19-14 40-14 59 0"/>
    <path d="M566 237c9-5 19-5 29 0"/>
  </g>
</svg>

